<mxfile host="Electron" agent="Mozilla/5.0 (Windows NT 10.0; Win64; x64) AppleWebKit/537.36 (KHTML, like Gecko) draw.io/26.0.16 Chrome/132.0.6834.196 Electron/34.2.0 Safari/537.36" version="26.0.16">
  <diagram name="Page-1" id="EFyuxkqvzAY0xfPjEcam">
    <mxGraphModel dx="1997" dy="675" grid="1" gridSize="10" guides="1" tooltips="1" connect="1" arrows="1" fold="1" page="1" pageScale="1" pageWidth="850" pageHeight="1100" math="0" shadow="0">
      <root>
        <mxCell id="0" />
        <mxCell id="1" parent="0" />
        <mxCell id="vt7eSgyee0l8mGqO6cdc-35" style="edgeStyle=orthogonalEdgeStyle;rounded=0;orthogonalLoop=1;jettySize=auto;html=1;exitX=1;exitY=0.8;exitDx=0;exitDy=0;entryX=0.5;entryY=0;entryDx=0;entryDy=0;endArrow=none;endFill=0;fillColor=#f8cecc;strokeColor=#b85450;strokeWidth=3;" parent="1" source="vt7eSgyee0l8mGqO6cdc-1" target="vt7eSgyee0l8mGqO6cdc-17" edge="1">
          <mxGeometry relative="1" as="geometry">
            <mxPoint x="560" y="140" as="targetPoint" />
          </mxGeometry>
        </mxCell>
        <mxCell id="vt7eSgyee0l8mGqO6cdc-36" style="edgeStyle=orthogonalEdgeStyle;rounded=0;orthogonalLoop=1;jettySize=auto;html=1;exitX=1;exitY=0.8;exitDx=0;exitDy=0;entryX=0.5;entryY=0;entryDx=0;entryDy=0;endArrow=none;endFill=0;fillColor=#f8cecc;strokeColor=#b85450;strokeWidth=3;" parent="1" source="vt7eSgyee0l8mGqO6cdc-1" edge="1">
          <mxGeometry relative="1" as="geometry">
            <mxPoint x="860" y="160" as="targetPoint" />
          </mxGeometry>
        </mxCell>
        <mxCell id="vt7eSgyee0l8mGqO6cdc-1" value="" style="pointerEvents=1;verticalLabelPosition=bottom;shadow=0;dashed=0;align=center;html=1;verticalAlign=top;shape=mxgraph.electrical.electro-mechanical.circuitBreaker2;elSwitchState=off;" parent="1" vertex="1">
          <mxGeometry x="60" y="60" width="75" height="20" as="geometry" />
        </mxCell>
        <mxCell id="vt7eSgyee0l8mGqO6cdc-2" value="OFF / ON&lt;div&gt;KNOB&lt;/div&gt;" style="text;html=1;align=center;verticalAlign=middle;resizable=0;points=[];autosize=1;strokeColor=none;fillColor=none;" parent="1" vertex="1">
          <mxGeometry x="60" y="20" width="80" height="40" as="geometry" />
        </mxCell>
        <mxCell id="vt7eSgyee0l8mGqO6cdc-6" style="edgeStyle=orthogonalEdgeStyle;rounded=0;orthogonalLoop=1;jettySize=auto;html=1;entryX=0;entryY=0.8;entryDx=0;entryDy=0;exitX=1;exitY=0.5;exitDx=0;exitDy=0;exitPerimeter=0;endArrow=none;endFill=0;fillColor=#f8cecc;strokeColor=#b85450;strokeWidth=3;" parent="1" source="vt7eSgyee0l8mGqO6cdc-3" target="vt7eSgyee0l8mGqO6cdc-1" edge="1">
          <mxGeometry relative="1" as="geometry" />
        </mxCell>
        <mxCell id="vt7eSgyee0l8mGqO6cdc-3" value="" style="verticalLabelPosition=bottom;shadow=0;dashed=0;align=center;fillColor=strokeColor;html=1;verticalAlign=top;strokeWidth=1;shape=mxgraph.electrical.miscellaneous.monocell_battery;direction=north;" parent="1" vertex="1">
          <mxGeometry x="-10" y="100" width="60" height="100" as="geometry" />
        </mxCell>
        <mxCell id="vt7eSgyee0l8mGqO6cdc-4" value="22.2V&lt;div&gt;LiPo&lt;/div&gt;" style="text;html=1;align=center;verticalAlign=middle;resizable=0;points=[];autosize=1;strokeColor=none;fillColor=none;" parent="1" vertex="1">
          <mxGeometry x="-60" y="130" width="50" height="40" as="geometry" />
        </mxCell>
        <mxCell id="vt7eSgyee0l8mGqO6cdc-15" value="" style="group" parent="1" connectable="0" vertex="1">
          <mxGeometry x="320" y="160" width="120" height="120" as="geometry" />
        </mxCell>
        <mxCell id="vt7eSgyee0l8mGqO6cdc-7" value="&lt;div&gt;&lt;font style=&quot;font-size: 12px;&quot;&gt;&lt;br&gt;&lt;/font&gt;&lt;/div&gt;&lt;font style=&quot;font-size: 12px;&quot;&gt;12V Relay&lt;/font&gt;&lt;div&gt;&lt;font style=&quot;font-size: 12px;&quot;&gt;(CB1A-M-12V)&lt;/font&gt;&lt;/div&gt;" style="whiteSpace=wrap;html=1;aspect=fixed;" parent="vt7eSgyee0l8mGqO6cdc-15" vertex="1">
          <mxGeometry width="120" height="120" as="geometry" />
        </mxCell>
        <mxCell id="vt7eSgyee0l8mGqO6cdc-12" value="" style="pointerEvents=1;fillColor=strokeColor;verticalLabelPosition=bottom;shadow=0;dashed=0;align=center;html=1;verticalAlign=top;shape=mxgraph.electrical.diodes.diode;" parent="vt7eSgyee0l8mGqO6cdc-15" vertex="1">
          <mxGeometry x="30" y="25" width="60" height="20" as="geometry" />
        </mxCell>
        <mxCell id="vt7eSgyee0l8mGqO6cdc-8" value="&lt;font style=&quot;font-size: 10px;&quot;&gt;30&lt;/font&gt;" style="text;html=1;align=center;verticalAlign=middle;resizable=0;points=[];autosize=1;strokeColor=none;fillColor=none;" parent="vt7eSgyee0l8mGqO6cdc-15" vertex="1">
          <mxGeometry x="45" y="90" width="30" height="30" as="geometry" />
        </mxCell>
        <mxCell id="vt7eSgyee0l8mGqO6cdc-9" value="&lt;font style=&quot;font-size: 10px;&quot;&gt;87&lt;/font&gt;" style="text;html=1;align=center;verticalAlign=middle;resizable=0;points=[];autosize=1;strokeColor=none;fillColor=none;" parent="vt7eSgyee0l8mGqO6cdc-15" vertex="1">
          <mxGeometry x="45" width="30" height="30" as="geometry" />
        </mxCell>
        <mxCell id="vt7eSgyee0l8mGqO6cdc-10" value="&lt;font style=&quot;font-size: 10px;&quot;&gt;86&lt;/font&gt;" style="text;html=1;align=center;verticalAlign=middle;resizable=0;points=[];autosize=1;strokeColor=none;fillColor=none;" parent="vt7eSgyee0l8mGqO6cdc-15" vertex="1">
          <mxGeometry y="45" width="30" height="30" as="geometry" />
        </mxCell>
        <mxCell id="vt7eSgyee0l8mGqO6cdc-13" style="edgeStyle=orthogonalEdgeStyle;rounded=0;orthogonalLoop=1;jettySize=auto;html=1;entryX=0.474;entryY=0.091;entryDx=0;entryDy=0;entryPerimeter=0;exitX=0;exitY=0.5;exitDx=0;exitDy=0;exitPerimeter=0;endArrow=none;endFill=0;" parent="vt7eSgyee0l8mGqO6cdc-15" source="vt7eSgyee0l8mGqO6cdc-12" target="vt7eSgyee0l8mGqO6cdc-10" edge="1">
          <mxGeometry relative="1" as="geometry">
            <Array as="points">
              <mxPoint x="14" y="35" />
            </Array>
          </mxGeometry>
        </mxCell>
        <mxCell id="vt7eSgyee0l8mGqO6cdc-11" value="&lt;font style=&quot;font-size: 10px;&quot;&gt;85&lt;/font&gt;" style="text;html=1;align=center;verticalAlign=middle;resizable=0;points=[];autosize=1;strokeColor=none;fillColor=none;" parent="vt7eSgyee0l8mGqO6cdc-15" vertex="1">
          <mxGeometry x="90" y="45" width="30" height="30" as="geometry" />
        </mxCell>
        <mxCell id="vt7eSgyee0l8mGqO6cdc-14" style="edgeStyle=orthogonalEdgeStyle;rounded=0;orthogonalLoop=1;jettySize=auto;html=1;exitX=1;exitY=0.5;exitDx=0;exitDy=0;exitPerimeter=0;entryX=0.49;entryY=0.109;entryDx=0;entryDy=0;entryPerimeter=0;endArrow=none;endFill=0;" parent="vt7eSgyee0l8mGqO6cdc-15" source="vt7eSgyee0l8mGqO6cdc-12" target="vt7eSgyee0l8mGqO6cdc-11" edge="1">
          <mxGeometry relative="1" as="geometry" />
        </mxCell>
        <mxCell id="vt7eSgyee0l8mGqO6cdc-16" value="" style="group" parent="1" connectable="0" vertex="1">
          <mxGeometry x="560" y="160" width="120" height="120" as="geometry" />
        </mxCell>
        <mxCell id="vt7eSgyee0l8mGqO6cdc-17" value="&lt;div&gt;&lt;font style=&quot;font-size: 12px;&quot;&gt;&lt;br&gt;&lt;/font&gt;&lt;/div&gt;&lt;font style=&quot;font-size: 12px;&quot;&gt;12V Relay&lt;/font&gt;&lt;div&gt;&lt;font style=&quot;font-size: 12px;&quot;&gt;(CB1A-M-12V)&lt;/font&gt;&lt;/div&gt;" style="whiteSpace=wrap;html=1;aspect=fixed;" parent="vt7eSgyee0l8mGqO6cdc-16" vertex="1">
          <mxGeometry width="120" height="120" as="geometry" />
        </mxCell>
        <mxCell id="vt7eSgyee0l8mGqO6cdc-22" value="" style="pointerEvents=1;fillColor=strokeColor;verticalLabelPosition=bottom;shadow=0;dashed=0;align=center;html=1;verticalAlign=top;shape=mxgraph.electrical.diodes.diode;" parent="vt7eSgyee0l8mGqO6cdc-16" vertex="1">
          <mxGeometry x="30" y="25" width="60" height="20" as="geometry" />
        </mxCell>
        <mxCell id="vt7eSgyee0l8mGqO6cdc-19" value="&lt;font style=&quot;font-size: 10px;&quot;&gt;87&lt;/font&gt;" style="text;html=1;align=center;verticalAlign=middle;resizable=0;points=[];autosize=1;strokeColor=none;fillColor=none;" parent="vt7eSgyee0l8mGqO6cdc-16" vertex="1">
          <mxGeometry x="45" width="30" height="30" as="geometry" />
        </mxCell>
        <mxCell id="vt7eSgyee0l8mGqO6cdc-21" value="&lt;font style=&quot;font-size: 10px;&quot;&gt;85&lt;/font&gt;" style="text;html=1;align=center;verticalAlign=middle;resizable=0;points=[];autosize=1;strokeColor=none;fillColor=none;" parent="vt7eSgyee0l8mGqO6cdc-16" vertex="1">
          <mxGeometry x="90" y="45" width="30" height="30" as="geometry" />
        </mxCell>
        <mxCell id="vt7eSgyee0l8mGqO6cdc-24" style="edgeStyle=orthogonalEdgeStyle;rounded=0;orthogonalLoop=1;jettySize=auto;html=1;exitX=1;exitY=0.5;exitDx=0;exitDy=0;exitPerimeter=0;entryX=0.49;entryY=0.109;entryDx=0;entryDy=0;entryPerimeter=0;endArrow=none;endFill=0;" parent="vt7eSgyee0l8mGqO6cdc-16" source="vt7eSgyee0l8mGqO6cdc-22" target="vt7eSgyee0l8mGqO6cdc-21" edge="1">
          <mxGeometry relative="1" as="geometry" />
        </mxCell>
        <mxCell id="vt7eSgyee0l8mGqO6cdc-20" value="&lt;font style=&quot;font-size: 10px;&quot;&gt;86&lt;/font&gt;" style="text;html=1;align=center;verticalAlign=middle;resizable=0;points=[];autosize=1;strokeColor=none;fillColor=none;" parent="vt7eSgyee0l8mGqO6cdc-16" vertex="1">
          <mxGeometry y="45" width="30" height="30" as="geometry" />
        </mxCell>
        <mxCell id="vt7eSgyee0l8mGqO6cdc-23" style="edgeStyle=orthogonalEdgeStyle;rounded=0;orthogonalLoop=1;jettySize=auto;html=1;entryX=0.474;entryY=0.091;entryDx=0;entryDy=0;entryPerimeter=0;exitX=0;exitY=0.5;exitDx=0;exitDy=0;exitPerimeter=0;endArrow=none;endFill=0;" parent="vt7eSgyee0l8mGqO6cdc-16" source="vt7eSgyee0l8mGqO6cdc-22" target="vt7eSgyee0l8mGqO6cdc-20" edge="1">
          <mxGeometry relative="1" as="geometry">
            <Array as="points">
              <mxPoint x="14" y="35" />
            </Array>
          </mxGeometry>
        </mxCell>
        <mxCell id="vt7eSgyee0l8mGqO6cdc-18" value="&lt;font style=&quot;font-size: 10px;&quot;&gt;30&lt;/font&gt;" style="text;html=1;align=center;verticalAlign=middle;resizable=0;points=[];autosize=1;strokeColor=none;fillColor=none;" parent="vt7eSgyee0l8mGqO6cdc-16" vertex="1">
          <mxGeometry x="45" y="90" width="30" height="30" as="geometry" />
        </mxCell>
        <mxCell id="vt7eSgyee0l8mGqO6cdc-34" style="edgeStyle=orthogonalEdgeStyle;rounded=0;orthogonalLoop=1;jettySize=auto;html=1;exitX=1;exitY=0.8;exitDx=0;exitDy=0;entryX=0.5;entryY=0;entryDx=0;entryDy=0;endArrow=none;endFill=0;fillColor=#f8cecc;strokeColor=#b85450;strokeWidth=3;" parent="1" source="vt7eSgyee0l8mGqO6cdc-1" target="vt7eSgyee0l8mGqO6cdc-7" edge="1">
          <mxGeometry relative="1" as="geometry" />
        </mxCell>
        <mxCell id="vt7eSgyee0l8mGqO6cdc-47" value="" style="group;flipV=0;flipH=0;" parent="1" connectable="0" vertex="1">
          <mxGeometry x="80" y="560" width="200" height="200" as="geometry" />
        </mxCell>
        <mxCell id="vt7eSgyee0l8mGqO6cdc-37" value="DC/DC Converter&lt;div&gt;(VHB50W-Q48-S12)&lt;br&gt;22VDC-to-12VDC&lt;/div&gt;" style="rounded=0;whiteSpace=wrap;html=1;" parent="vt7eSgyee0l8mGqO6cdc-47" vertex="1">
          <mxGeometry width="200" height="200" as="geometry" />
        </mxCell>
        <mxCell id="vt7eSgyee0l8mGqO6cdc-39" value="&lt;font style=&quot;font-size: 10px;&quot;&gt;On/Off&lt;/font&gt;" style="text;html=1;align=center;verticalAlign=middle;resizable=0;points=[];autosize=1;strokeColor=none;fillColor=none;" parent="vt7eSgyee0l8mGqO6cdc-47" vertex="1">
          <mxGeometry y="120" width="50" height="30" as="geometry" />
        </mxCell>
        <mxCell id="vt7eSgyee0l8mGqO6cdc-40" value="&lt;font style=&quot;font-size: 10px;&quot;&gt;CASE&lt;/font&gt;" style="text;html=1;align=center;verticalAlign=middle;resizable=0;points=[];autosize=1;strokeColor=none;fillColor=none;" parent="vt7eSgyee0l8mGqO6cdc-47" vertex="1">
          <mxGeometry y="60" width="50" height="30" as="geometry" />
        </mxCell>
        <mxCell id="vt7eSgyee0l8mGqO6cdc-42" value="&lt;font style=&quot;font-size: 10px;&quot;&gt;-Vo&lt;/font&gt;" style="text;html=1;align=center;verticalAlign=middle;resizable=0;points=[];autosize=1;strokeColor=none;fillColor=none;" parent="vt7eSgyee0l8mGqO6cdc-47" vertex="1">
          <mxGeometry x="160" width="40" height="30" as="geometry" />
        </mxCell>
        <mxCell id="vt7eSgyee0l8mGqO6cdc-43" value="&lt;font style=&quot;font-size: 10px;&quot;&gt;-S&lt;/font&gt;" style="text;html=1;align=center;verticalAlign=middle;resizable=0;points=[];autosize=1;strokeColor=none;fillColor=none;" parent="vt7eSgyee0l8mGqO6cdc-47" vertex="1">
          <mxGeometry x="170" y="40" width="30" height="30" as="geometry" />
        </mxCell>
        <mxCell id="vt7eSgyee0l8mGqO6cdc-44" value="&lt;font style=&quot;font-size: 10px;&quot;&gt;+S&lt;/font&gt;" style="text;html=1;align=center;verticalAlign=middle;resizable=0;points=[];autosize=1;strokeColor=none;fillColor=none;" parent="vt7eSgyee0l8mGqO6cdc-47" vertex="1">
          <mxGeometry x="160" y="130" width="40" height="30" as="geometry" />
        </mxCell>
        <mxCell id="vt7eSgyee0l8mGqO6cdc-45" value="&lt;font style=&quot;font-size: 10px;&quot;&gt;+Vo&lt;/font&gt;" style="text;html=1;align=center;verticalAlign=middle;resizable=0;points=[];autosize=1;strokeColor=none;fillColor=none;" parent="vt7eSgyee0l8mGqO6cdc-47" vertex="1">
          <mxGeometry x="160" y="170" width="40" height="30" as="geometry" />
        </mxCell>
        <mxCell id="vt7eSgyee0l8mGqO6cdc-46" value="&lt;font style=&quot;font-size: 10px;&quot;&gt;TRIM&lt;/font&gt;" style="text;html=1;align=center;verticalAlign=middle;resizable=0;points=[];autosize=1;strokeColor=none;fillColor=none;spacing=0;" parent="vt7eSgyee0l8mGqO6cdc-47" vertex="1">
          <mxGeometry x="160" y="90" width="40" height="20" as="geometry" />
        </mxCell>
        <mxCell id="vt7eSgyee0l8mGqO6cdc-38" value="&lt;font style=&quot;font-size: 10px;&quot;&gt;+Vin&lt;/font&gt;" style="text;html=1;align=center;verticalAlign=middle;resizable=0;points=[];autosize=1;strokeColor=none;fillColor=none;" parent="vt7eSgyee0l8mGqO6cdc-47" vertex="1">
          <mxGeometry y="170" width="40" height="30" as="geometry" />
        </mxCell>
        <mxCell id="vt7eSgyee0l8mGqO6cdc-41" value="&lt;font style=&quot;font-size: 10px;&quot;&gt;-Vin&lt;/font&gt;" style="text;html=1;align=center;verticalAlign=middle;resizable=0;points=[];autosize=1;strokeColor=none;fillColor=none;" parent="vt7eSgyee0l8mGqO6cdc-47" vertex="1">
          <mxGeometry width="40" height="30" as="geometry" />
        </mxCell>
        <mxCell id="vt7eSgyee0l8mGqO6cdc-48" style="edgeStyle=orthogonalEdgeStyle;rounded=0;orthogonalLoop=1;jettySize=auto;html=1;exitX=0.5;exitY=1;exitDx=0;exitDy=0;entryX=-0.002;entryY=0.935;entryDx=0;entryDy=0;entryPerimeter=0;endArrow=none;endFill=0;fillColor=#f8cecc;strokeColor=#b85450;strokeWidth=3;" parent="1" source="vt7eSgyee0l8mGqO6cdc-7" target="vt7eSgyee0l8mGqO6cdc-37" edge="1">
          <mxGeometry relative="1" as="geometry">
            <mxPoint x="80" y="587" as="targetPoint" />
            <Array as="points">
              <mxPoint x="380" y="440" />
              <mxPoint x="-40" y="440" />
              <mxPoint x="-40" y="747" />
            </Array>
          </mxGeometry>
        </mxCell>
        <mxCell id="vt7eSgyee0l8mGqO6cdc-49" style="edgeStyle=orthogonalEdgeStyle;rounded=0;orthogonalLoop=1;jettySize=auto;html=1;entryX=-0.001;entryY=0.086;entryDx=0;entryDy=0;entryPerimeter=0;endArrow=none;endFill=0;strokeWidth=3;" parent="1" source="vt7eSgyee0l8mGqO6cdc-3" target="vt7eSgyee0l8mGqO6cdc-37" edge="1">
          <mxGeometry relative="1" as="geometry">
            <Array as="points">
              <mxPoint x="20" y="577" />
            </Array>
          </mxGeometry>
        </mxCell>
        <mxCell id="vt7eSgyee0l8mGqO6cdc-63" value="" style="group" parent="1" connectable="0" vertex="1">
          <mxGeometry x="400" y="560" width="200" height="200" as="geometry" />
        </mxCell>
        <mxCell id="vt7eSgyee0l8mGqO6cdc-51" value="&lt;div&gt;&lt;span style=&quot;background-color: initial;&quot;&gt;Front&lt;/span&gt;&lt;/div&gt;&lt;div&gt;&lt;span style=&quot;background-color: initial;&quot;&gt;Dual Motor Driver&lt;/span&gt;&lt;/div&gt;&lt;div&gt;&lt;span style=&quot;background-color: initial;&quot;&gt;(&lt;/span&gt;&lt;span style=&quot;background-color: initial;&quot;&gt;Sabertooth&amp;nbsp;&lt;/span&gt;&lt;span style=&quot;background-color: initial;&quot;&gt;2X25 V2)&lt;/span&gt;&lt;/div&gt;" style="rounded=0;whiteSpace=wrap;html=1;" parent="vt7eSgyee0l8mGqO6cdc-63" vertex="1">
          <mxGeometry width="200" height="200" as="geometry" />
        </mxCell>
        <mxCell id="vt7eSgyee0l8mGqO6cdc-52" value="&lt;font style=&quot;font-size: 10px;&quot;&gt;S1&lt;/font&gt;" style="text;html=1;align=center;verticalAlign=middle;resizable=0;points=[];autosize=1;strokeColor=none;fillColor=none;" parent="vt7eSgyee0l8mGqO6cdc-63" vertex="1">
          <mxGeometry y="120" width="40" height="30" as="geometry" />
        </mxCell>
        <mxCell id="vt7eSgyee0l8mGqO6cdc-53" value="&lt;font style=&quot;font-size: 10px;&quot;&gt;5V&lt;/font&gt;" style="text;html=1;align=center;verticalAlign=middle;resizable=0;points=[];autosize=1;strokeColor=none;fillColor=none;" parent="vt7eSgyee0l8mGqO6cdc-63" vertex="1">
          <mxGeometry y="60" width="40" height="30" as="geometry" />
        </mxCell>
        <mxCell id="vt7eSgyee0l8mGqO6cdc-54" value="&lt;font style=&quot;font-size: 10px;&quot;&gt;M1B&lt;/font&gt;" style="text;html=1;align=center;verticalAlign=middle;resizable=0;points=[];autosize=1;strokeColor=none;fillColor=none;" parent="vt7eSgyee0l8mGqO6cdc-63" vertex="1">
          <mxGeometry x="80" width="40" height="30" as="geometry" />
        </mxCell>
        <mxCell id="vt7eSgyee0l8mGqO6cdc-55" value="&lt;font style=&quot;font-size: 10px;&quot;&gt;M1A&lt;/font&gt;" style="text;html=1;align=center;verticalAlign=middle;resizable=0;points=[];autosize=1;strokeColor=none;fillColor=none;" parent="vt7eSgyee0l8mGqO6cdc-63" vertex="1">
          <mxGeometry x="50" width="40" height="30" as="geometry" />
        </mxCell>
        <mxCell id="vt7eSgyee0l8mGqO6cdc-56" value="&lt;font style=&quot;font-size: 10px;&quot;&gt;M2B&lt;/font&gt;" style="text;html=1;align=center;verticalAlign=middle;resizable=0;points=[];autosize=1;strokeColor=none;fillColor=none;" parent="vt7eSgyee0l8mGqO6cdc-63" vertex="1">
          <mxGeometry x="160" width="40" height="30" as="geometry" />
        </mxCell>
        <mxCell id="vt7eSgyee0l8mGqO6cdc-57" value="&lt;font style=&quot;font-size: 10px;&quot;&gt;M2A&lt;/font&gt;" style="text;html=1;align=center;verticalAlign=middle;resizable=0;points=[];autosize=1;strokeColor=none;fillColor=none;" parent="vt7eSgyee0l8mGqO6cdc-63" vertex="1">
          <mxGeometry x="130" width="40" height="30" as="geometry" />
        </mxCell>
        <mxCell id="vt7eSgyee0l8mGqO6cdc-59" value="&lt;font style=&quot;font-size: 10px;&quot;&gt;S2&lt;/font&gt;" style="text;html=1;align=center;verticalAlign=middle;resizable=0;points=[];autosize=1;strokeColor=none;fillColor=none;" parent="vt7eSgyee0l8mGqO6cdc-63" vertex="1">
          <mxGeometry y="170" width="40" height="30" as="geometry" />
        </mxCell>
        <mxCell id="vt7eSgyee0l8mGqO6cdc-60" value="&lt;font style=&quot;font-size: 10px;&quot;&gt;0V&lt;/font&gt;" style="text;html=1;align=center;verticalAlign=middle;resizable=0;points=[];autosize=1;strokeColor=none;fillColor=none;" parent="vt7eSgyee0l8mGqO6cdc-63" vertex="1">
          <mxGeometry width="40" height="30" as="geometry" />
        </mxCell>
        <mxCell id="vt7eSgyee0l8mGqO6cdc-61" value="&lt;font style=&quot;font-size: 10px;&quot;&gt;B+&lt;/font&gt;" style="text;html=1;align=center;verticalAlign=middle;resizable=0;points=[];autosize=1;strokeColor=none;fillColor=none;spacing=0;" parent="vt7eSgyee0l8mGqO6cdc-63" vertex="1">
          <mxGeometry x="170" y="100" width="30" height="20" as="geometry" />
        </mxCell>
        <mxCell id="vt7eSgyee0l8mGqO6cdc-58" value="&lt;font style=&quot;font-size: 10px;&quot;&gt;B-&lt;/font&gt;" style="text;html=1;align=center;verticalAlign=middle;resizable=0;points=[];autosize=1;strokeColor=none;fillColor=none;spacing=0;" parent="vt7eSgyee0l8mGqO6cdc-63" vertex="1">
          <mxGeometry x="170" y="80" width="30" height="20" as="geometry" />
        </mxCell>
        <mxCell id="vt7eSgyee0l8mGqO6cdc-64" value="" style="group" parent="1" connectable="0" vertex="1">
          <mxGeometry x="740" y="560" width="200" height="200" as="geometry" />
        </mxCell>
        <mxCell id="vt7eSgyee0l8mGqO6cdc-65" value="&lt;div&gt;Back&lt;/div&gt;&lt;div&gt;&lt;span style=&quot;background-color: initial;&quot;&gt;Dual Motor Driver&lt;/span&gt;&lt;/div&gt;&lt;div&gt;&lt;span style=&quot;background-color: initial;&quot;&gt;(&lt;/span&gt;&lt;span style=&quot;background-color: initial;&quot;&gt;Sabertooth&amp;nbsp;&lt;/span&gt;&lt;span style=&quot;background-color: initial;&quot;&gt;2X25 V2)&lt;/span&gt;&lt;/div&gt;" style="rounded=0;whiteSpace=wrap;html=1;" parent="vt7eSgyee0l8mGqO6cdc-64" vertex="1">
          <mxGeometry width="200" height="200" as="geometry" />
        </mxCell>
        <mxCell id="vt7eSgyee0l8mGqO6cdc-66" value="&lt;font style=&quot;font-size: 10px;&quot;&gt;S1&lt;/font&gt;" style="text;html=1;align=center;verticalAlign=middle;resizable=0;points=[];autosize=1;strokeColor=none;fillColor=none;" parent="vt7eSgyee0l8mGqO6cdc-64" vertex="1">
          <mxGeometry y="120" width="40" height="30" as="geometry" />
        </mxCell>
        <mxCell id="vt7eSgyee0l8mGqO6cdc-67" value="&lt;font style=&quot;font-size: 10px;&quot;&gt;5V&lt;/font&gt;" style="text;html=1;align=center;verticalAlign=middle;resizable=0;points=[];autosize=1;strokeColor=none;fillColor=none;" parent="vt7eSgyee0l8mGqO6cdc-64" vertex="1">
          <mxGeometry y="60" width="40" height="30" as="geometry" />
        </mxCell>
        <mxCell id="vt7eSgyee0l8mGqO6cdc-68" value="&lt;font style=&quot;font-size: 10px;&quot;&gt;M2B&lt;/font&gt;" style="text;html=1;align=center;verticalAlign=middle;resizable=0;points=[];autosize=1;strokeColor=none;fillColor=none;" parent="vt7eSgyee0l8mGqO6cdc-64" vertex="1">
          <mxGeometry x="130" width="40" height="30" as="geometry" />
        </mxCell>
        <mxCell id="vt7eSgyee0l8mGqO6cdc-69" value="&lt;font style=&quot;font-size: 10px;&quot;&gt;M2A&lt;/font&gt;" style="text;html=1;align=center;verticalAlign=middle;resizable=0;points=[];autosize=1;strokeColor=none;fillColor=none;" parent="vt7eSgyee0l8mGqO6cdc-64" vertex="1">
          <mxGeometry x="160" width="40" height="30" as="geometry" />
        </mxCell>
        <mxCell id="vt7eSgyee0l8mGqO6cdc-70" value="&lt;font style=&quot;font-size: 10px;&quot;&gt;M1B&lt;/font&gt;" style="text;html=1;align=center;verticalAlign=middle;resizable=0;points=[];autosize=1;strokeColor=none;fillColor=none;" parent="vt7eSgyee0l8mGqO6cdc-64" vertex="1">
          <mxGeometry x="80" width="40" height="30" as="geometry" />
        </mxCell>
        <mxCell id="vt7eSgyee0l8mGqO6cdc-71" value="&lt;font style=&quot;font-size: 10px;&quot;&gt;M1A&lt;/font&gt;" style="text;html=1;align=center;verticalAlign=middle;resizable=0;points=[];autosize=1;strokeColor=none;fillColor=none;" parent="vt7eSgyee0l8mGqO6cdc-64" vertex="1">
          <mxGeometry x="50" width="40" height="30" as="geometry" />
        </mxCell>
        <mxCell id="vt7eSgyee0l8mGqO6cdc-73" value="&lt;font style=&quot;font-size: 10px;&quot;&gt;S2&lt;/font&gt;" style="text;html=1;align=center;verticalAlign=middle;resizable=0;points=[];autosize=1;strokeColor=none;fillColor=none;" parent="vt7eSgyee0l8mGqO6cdc-64" vertex="1">
          <mxGeometry y="170" width="40" height="30" as="geometry" />
        </mxCell>
        <mxCell id="vt7eSgyee0l8mGqO6cdc-74" value="&lt;font style=&quot;font-size: 10px;&quot;&gt;0V&lt;/font&gt;" style="text;html=1;align=center;verticalAlign=middle;resizable=0;points=[];autosize=1;strokeColor=none;fillColor=none;" parent="vt7eSgyee0l8mGqO6cdc-64" vertex="1">
          <mxGeometry width="40" height="30" as="geometry" />
        </mxCell>
        <mxCell id="vt7eSgyee0l8mGqO6cdc-75" value="&lt;font style=&quot;font-size: 10px;&quot;&gt;B+&lt;/font&gt;" style="text;html=1;align=center;verticalAlign=middle;resizable=0;points=[];autosize=1;strokeColor=none;fillColor=none;spacing=0;" parent="vt7eSgyee0l8mGqO6cdc-64" vertex="1">
          <mxGeometry x="170" y="100" width="30" height="20" as="geometry" />
        </mxCell>
        <mxCell id="vt7eSgyee0l8mGqO6cdc-72" value="&lt;font style=&quot;font-size: 10px;&quot;&gt;B-&lt;/font&gt;" style="text;html=1;align=center;verticalAlign=middle;resizable=0;points=[];autosize=1;strokeColor=none;fillColor=none;spacing=0;" parent="vt7eSgyee0l8mGqO6cdc-64" vertex="1">
          <mxGeometry x="170" y="80" width="30" height="20" as="geometry" />
        </mxCell>
        <mxCell id="vt7eSgyee0l8mGqO6cdc-76" style="edgeStyle=orthogonalEdgeStyle;rounded=0;orthogonalLoop=1;jettySize=auto;html=1;exitX=0;exitY=0.5;exitDx=0;exitDy=0;exitPerimeter=0;entryX=1.006;entryY=0.459;entryDx=0;entryDy=0;entryPerimeter=0;endArrow=none;endFill=0;strokeWidth=3;" parent="1" source="vt7eSgyee0l8mGqO6cdc-3" target="vt7eSgyee0l8mGqO6cdc-51" edge="1">
          <mxGeometry relative="1" as="geometry">
            <mxPoint x="99.96000000000001" y="150.0000000000001" as="sourcePoint" />
            <mxPoint x="610" y="500" as="targetPoint" />
            <Array as="points">
              <mxPoint x="20" y="480" />
              <mxPoint x="680" y="480" />
              <mxPoint x="680" y="652" />
              <mxPoint x="601" y="652" />
            </Array>
          </mxGeometry>
        </mxCell>
        <mxCell id="vt7eSgyee0l8mGqO6cdc-77" style="edgeStyle=orthogonalEdgeStyle;rounded=0;orthogonalLoop=1;jettySize=auto;html=1;entryX=1.001;entryY=0.45;entryDx=0;entryDy=0;entryPerimeter=0;endArrow=none;endFill=0;strokeWidth=3;" parent="1" source="vt7eSgyee0l8mGqO6cdc-3" target="vt7eSgyee0l8mGqO6cdc-65" edge="1">
          <mxGeometry relative="1" as="geometry">
            <mxPoint x="910" y="480" as="targetPoint" />
            <Array as="points">
              <mxPoint x="20" y="480" />
              <mxPoint x="960" y="480" />
              <mxPoint x="960" y="650" />
            </Array>
          </mxGeometry>
        </mxCell>
        <mxCell id="vt7eSgyee0l8mGqO6cdc-78" value="Button" style="ellipse;whiteSpace=wrap;html=1;aspect=fixed;" parent="1" vertex="1">
          <mxGeometry x="120" y="160" width="80" height="80" as="geometry" />
        </mxCell>
        <mxCell id="vt7eSgyee0l8mGqO6cdc-82" style="edgeStyle=orthogonalEdgeStyle;rounded=0;orthogonalLoop=1;jettySize=auto;html=1;exitX=0.5;exitY=1;exitDx=0;exitDy=0;entryX=1;entryY=0.5;entryDx=0;entryDy=0;endArrow=none;endFill=0;fillColor=#dae8fc;strokeColor=#6c8ebf;strokeWidth=3;" parent="1" source="vt7eSgyee0l8mGqO6cdc-7" target="vt7eSgyee0l8mGqO6cdc-78" edge="1">
          <mxGeometry relative="1" as="geometry">
            <Array as="points">
              <mxPoint x="380" y="360" />
              <mxPoint x="240" y="360" />
              <mxPoint x="240" y="200" />
            </Array>
          </mxGeometry>
        </mxCell>
        <mxCell id="vt7eSgyee0l8mGqO6cdc-83" style="edgeStyle=orthogonalEdgeStyle;rounded=0;orthogonalLoop=1;jettySize=auto;html=1;exitX=0.5;exitY=0;exitDx=0;exitDy=0;entryX=0;entryY=0.5;entryDx=0;entryDy=0;endArrow=none;endFill=0;fillColor=#dae8fc;strokeColor=#6c8ebf;strokeWidth=3;" parent="1" target="vt7eSgyee0l8mGqO6cdc-78" edge="1">
          <mxGeometry relative="1" as="geometry">
            <mxPoint x="380" y="115" as="sourcePoint" />
            <Array as="points">
              <mxPoint x="80" y="120" />
              <mxPoint x="80" y="200" />
            </Array>
          </mxGeometry>
        </mxCell>
        <mxCell id="vt7eSgyee0l8mGqO6cdc-84" style="edgeStyle=orthogonalEdgeStyle;rounded=0;orthogonalLoop=1;jettySize=auto;html=1;exitX=1;exitY=0.5;exitDx=0;exitDy=0;entryX=1;entryY=0.5;entryDx=0;entryDy=0;endArrow=none;endFill=0;fillColor=#f8cecc;strokeColor=#b85450;" parent="1" source="vt7eSgyee0l8mGqO6cdc-7" target="vt7eSgyee0l8mGqO6cdc-17" edge="1">
          <mxGeometry relative="1" as="geometry">
            <mxPoint x="670" y="250.00000000000006" as="targetPoint" />
            <Array as="points">
              <mxPoint x="480" y="220" />
              <mxPoint x="480" y="120" />
              <mxPoint x="720" y="120" />
              <mxPoint x="720" y="220" />
            </Array>
          </mxGeometry>
        </mxCell>
        <mxCell id="vt7eSgyee0l8mGqO6cdc-86" style="edgeStyle=orthogonalEdgeStyle;rounded=0;orthogonalLoop=1;jettySize=auto;html=1;exitX=1;exitY=0.5;exitDx=0;exitDy=0;entryX=1;entryY=0.5;entryDx=0;entryDy=0;endArrow=none;endFill=0;fillColor=#f8cecc;strokeColor=#b85450;" parent="1" source="vt7eSgyee0l8mGqO6cdc-17" edge="1">
          <mxGeometry relative="1" as="geometry">
            <Array as="points">
              <mxPoint x="720" y="220" />
              <mxPoint x="720" y="120" />
              <mxPoint x="960" y="120" />
              <mxPoint x="960" y="220" />
            </Array>
            <mxPoint x="920" y="220" as="targetPoint" />
          </mxGeometry>
        </mxCell>
        <mxCell id="vt7eSgyee0l8mGqO6cdc-99" style="edgeStyle=orthogonalEdgeStyle;rounded=0;orthogonalLoop=1;jettySize=auto;html=1;exitX=0;exitY=0.5;exitDx=0;exitDy=0;entryX=0;entryY=0.5;entryDx=0;entryDy=0;endArrow=none;endFill=0;" parent="1" source="vt7eSgyee0l8mGqO6cdc-7" target="vt7eSgyee0l8mGqO6cdc-17" edge="1">
          <mxGeometry relative="1" as="geometry">
            <Array as="points">
              <mxPoint x="280" y="220" />
              <mxPoint x="280" y="320" />
              <mxPoint x="520" y="320" />
              <mxPoint x="520" y="220" />
            </Array>
          </mxGeometry>
        </mxCell>
        <mxCell id="vt7eSgyee0l8mGqO6cdc-100" style="edgeStyle=orthogonalEdgeStyle;rounded=0;orthogonalLoop=1;jettySize=auto;html=1;exitX=0;exitY=0.5;exitDx=0;exitDy=0;entryX=0;entryY=0.5;entryDx=0;entryDy=0;endArrow=none;endFill=0;" parent="1" source="vt7eSgyee0l8mGqO6cdc-17" edge="1">
          <mxGeometry relative="1" as="geometry">
            <Array as="points">
              <mxPoint x="520" y="220" />
              <mxPoint x="520" y="320" />
              <mxPoint x="760" y="320" />
              <mxPoint x="760" y="220" />
            </Array>
            <mxPoint x="800" y="220" as="targetPoint" />
          </mxGeometry>
        </mxCell>
        <mxCell id="vt7eSgyee0l8mGqO6cdc-102" style="edgeStyle=orthogonalEdgeStyle;rounded=0;orthogonalLoop=1;jettySize=auto;html=1;exitX=0.5;exitY=1;exitDx=0;exitDy=0;entryX=1.001;entryY=0.557;entryDx=0;entryDy=0;entryPerimeter=0;strokeWidth=3;fillColor=#f8cecc;strokeColor=#b85450;endArrow=none;endFill=0;" parent="1" source="vt7eSgyee0l8mGqO6cdc-17" target="vt7eSgyee0l8mGqO6cdc-51" edge="1">
          <mxGeometry relative="1" as="geometry">
            <Array as="points">
              <mxPoint x="620" y="300" />
              <mxPoint x="700" y="300" />
              <mxPoint x="700" y="671" />
            </Array>
          </mxGeometry>
        </mxCell>
        <mxCell id="vt7eSgyee0l8mGqO6cdc-103" style="edgeStyle=orthogonalEdgeStyle;rounded=0;orthogonalLoop=1;jettySize=auto;html=1;entryX=1.001;entryY=0.555;entryDx=0;entryDy=0;entryPerimeter=0;strokeWidth=3;fillColor=#f8cecc;strokeColor=#b85450;endArrow=none;endFill=0;exitX=0.481;exitY=0.981;exitDx=0;exitDy=0;exitPerimeter=0;" parent="1" target="vt7eSgyee0l8mGqO6cdc-65" edge="1">
          <mxGeometry relative="1" as="geometry">
            <mxPoint x="940" y="642.782566236413" as="targetPoint" />
            <Array as="points">
              <mxPoint x="859" y="300" />
              <mxPoint x="980" y="300" />
              <mxPoint x="980" y="671" />
            </Array>
            <mxPoint x="859.4299999999998" y="279.43000000000006" as="sourcePoint" />
          </mxGeometry>
        </mxCell>
        <mxCell id="vt7eSgyee0l8mGqO6cdc-105" value="" style="edgeStyle=orthogonalEdgeStyle;rounded=0;orthogonalLoop=1;jettySize=auto;html=1;exitX=0.5;exitY=0;exitDx=0;exitDy=0;entryX=0;entryY=0.5;entryDx=0;entryDy=0;endArrow=none;endFill=0;fillColor=#dae8fc;strokeColor=#6c8ebf;strokeWidth=3;" parent="1" source="vt7eSgyee0l8mGqO6cdc-7" edge="1">
          <mxGeometry relative="1" as="geometry">
            <mxPoint x="380" y="160" as="sourcePoint" />
            <mxPoint x="375" y="120" as="targetPoint" />
            <Array as="points">
              <mxPoint x="380" y="120" />
            </Array>
          </mxGeometry>
        </mxCell>
        <mxCell id="vt7eSgyee0l8mGqO6cdc-106" value="" style="ellipse;whiteSpace=wrap;html=1;aspect=fixed;fillColor=#000000;" parent="1" vertex="1">
          <mxGeometry x="375" y="115" width="10" height="10" as="geometry" />
        </mxCell>
        <mxCell id="vt7eSgyee0l8mGqO6cdc-107" value="" style="ellipse;whiteSpace=wrap;html=1;aspect=fixed;fillColor=#000000;" parent="1" vertex="1">
          <mxGeometry x="15" y="475" width="10" height="10" as="geometry" />
        </mxCell>
        <mxCell id="vt7eSgyee0l8mGqO6cdc-108" value="" style="ellipse;whiteSpace=wrap;html=1;aspect=fixed;fillColor=#000000;" parent="1" vertex="1">
          <mxGeometry x="675" y="475" width="10" height="10" as="geometry" />
        </mxCell>
        <mxCell id="vt7eSgyee0l8mGqO6cdc-109" value="" style="ellipse;whiteSpace=wrap;html=1;aspect=fixed;fillColor=#000000;" parent="1" vertex="1">
          <mxGeometry x="375" y="71" width="10" height="10" as="geometry" />
        </mxCell>
        <mxCell id="vt7eSgyee0l8mGqO6cdc-110" value="" style="ellipse;whiteSpace=wrap;html=1;aspect=fixed;fillColor=#000000;" parent="1" vertex="1">
          <mxGeometry x="615" y="71" width="10" height="10" as="geometry" />
        </mxCell>
        <mxCell id="vt7eSgyee0l8mGqO6cdc-111" value="" style="ellipse;whiteSpace=wrap;html=1;aspect=fixed;fillColor=#000000;" parent="1" vertex="1">
          <mxGeometry x="375" y="355" width="10" height="10" as="geometry" />
        </mxCell>
        <mxCell id="vt7eSgyee0l8mGqO6cdc-112" value="" style="ellipse;whiteSpace=wrap;html=1;aspect=fixed;fillColor=#000000;" parent="1" vertex="1">
          <mxGeometry x="715" y="115" width="10" height="10" as="geometry" />
        </mxCell>
        <mxCell id="vt7eSgyee0l8mGqO6cdc-116" value="" style="ellipse;whiteSpace=wrap;html=1;aspect=fixed;fillColor=#000000;" parent="1" vertex="1">
          <mxGeometry x="515" y="315" width="10" height="10" as="geometry" />
        </mxCell>
        <mxCell id="vt7eSgyee0l8mGqO6cdc-117" style="edgeStyle=orthogonalEdgeStyle;rounded=0;orthogonalLoop=1;jettySize=auto;html=1;exitX=0;exitY=0.5;exitDx=0;exitDy=0;entryX=1.001;entryY=0.076;entryDx=0;entryDy=0;entryPerimeter=0;endArrow=none;endFill=0;" parent="1" source="vt7eSgyee0l8mGqO6cdc-7" target="vt7eSgyee0l8mGqO6cdc-37" edge="1">
          <mxGeometry relative="1" as="geometry">
            <Array as="points">
              <mxPoint x="280" y="220" />
              <mxPoint x="280" y="320" />
              <mxPoint x="320" y="320" />
              <mxPoint x="320" y="575" />
            </Array>
          </mxGeometry>
        </mxCell>
        <mxCell id="vt7eSgyee0l8mGqO6cdc-118" style="edgeStyle=orthogonalEdgeStyle;rounded=0;orthogonalLoop=1;jettySize=auto;html=1;exitX=1;exitY=0.5;exitDx=0;exitDy=0;entryX=1.003;entryY=0.933;entryDx=0;entryDy=0;entryPerimeter=0;fillColor=#f8cecc;strokeColor=#B85450;endArrow=none;endFill=0;" parent="1" source="vt7eSgyee0l8mGqO6cdc-7" target="vt7eSgyee0l8mGqO6cdc-37" edge="1">
          <mxGeometry relative="1" as="geometry">
            <Array as="points">
              <mxPoint x="480" y="220" />
              <mxPoint x="480" y="500" />
              <mxPoint x="360" y="500" />
              <mxPoint x="360" y="747" />
            </Array>
          </mxGeometry>
        </mxCell>
        <mxCell id="vt7eSgyee0l8mGqO6cdc-119" value="" style="ellipse;whiteSpace=wrap;html=1;aspect=fixed;fillColor=#000000;" parent="1" vertex="1">
          <mxGeometry x="475" y="215" width="10" height="10" as="geometry" />
        </mxCell>
        <mxCell id="vt7eSgyee0l8mGqO6cdc-120" value="" style="ellipse;whiteSpace=wrap;html=1;aspect=fixed;fillColor=#000000;" parent="1" vertex="1">
          <mxGeometry x="315" y="315" width="10" height="10" as="geometry" />
        </mxCell>
        <mxCell id="6G0Vr33L-CSMG4Fa-b3n-2" value="Raspberry&lt;br&gt;Pi 5" style="rounded=0;whiteSpace=wrap;html=1;" vertex="1" parent="1">
          <mxGeometry x="280" y="840" width="120" height="120" as="geometry" />
        </mxCell>
        <mxCell id="6G0Vr33L-CSMG4Fa-b3n-13" value="PD Board&lt;br&gt;12VDC-to-5VDC&lt;br&gt;&lt;div&gt;&lt;br&gt;&lt;/div&gt;" style="rounded=0;whiteSpace=wrap;html=1;" vertex="1" parent="1">
          <mxGeometry x="80" y="840" width="120" height="120" as="geometry" />
        </mxCell>
        <mxCell id="6G0Vr33L-CSMG4Fa-b3n-14" value="&lt;font style=&quot;font-size: 10px;&quot;&gt;+12V&lt;/font&gt;" style="text;html=1;align=center;verticalAlign=middle;resizable=0;points=[];autosize=1;strokeColor=none;fillColor=none;" vertex="1" parent="1">
          <mxGeometry x="80" y="840" width="50" height="30" as="geometry" />
        </mxCell>
        <mxCell id="6G0Vr33L-CSMG4Fa-b3n-15" value="&lt;font style=&quot;font-size: 10px;&quot;&gt;GND&lt;/font&gt;" style="text;html=1;align=center;verticalAlign=middle;resizable=0;points=[];autosize=1;strokeColor=none;fillColor=none;" vertex="1" parent="1">
          <mxGeometry x="80" y="930" width="50" height="30" as="geometry" />
        </mxCell>
        <mxCell id="6G0Vr33L-CSMG4Fa-b3n-16" value="&lt;font style=&quot;font-size: 10px;&quot;&gt;GND&lt;/font&gt;" style="text;html=1;align=center;verticalAlign=middle;resizable=0;points=[];autosize=1;strokeColor=none;fillColor=none;" vertex="1" parent="1">
          <mxGeometry x="150" y="930" width="50" height="30" as="geometry" />
        </mxCell>
        <mxCell id="6G0Vr33L-CSMG4Fa-b3n-17" value="&lt;font style=&quot;font-size: 10px;&quot;&gt;+5V&lt;/font&gt;" style="text;html=1;align=center;verticalAlign=middle;resizable=0;points=[];autosize=1;strokeColor=none;fillColor=none;" vertex="1" parent="1">
          <mxGeometry x="160" y="840" width="40" height="30" as="geometry" />
        </mxCell>
        <mxCell id="6G0Vr33L-CSMG4Fa-b3n-32" style="edgeStyle=orthogonalEdgeStyle;rounded=0;orthogonalLoop=1;jettySize=auto;html=1;entryX=1.017;entryY=0.556;entryDx=0;entryDy=0;entryPerimeter=0;exitX=-0.003;exitY=0.518;exitDx=0;exitDy=0;exitPerimeter=0;strokeColor=#B85450;endArrow=none;startFill=0;" edge="1" parent="1" source="6G0Vr33L-CSMG4Fa-b3n-14" target="vt7eSgyee0l8mGqO6cdc-45">
          <mxGeometry relative="1" as="geometry">
            <Array as="points">
              <mxPoint x="60" y="856" />
              <mxPoint x="60" y="800" />
              <mxPoint x="300" y="800" />
              <mxPoint x="300" y="747" />
            </Array>
          </mxGeometry>
        </mxCell>
        <mxCell id="6G0Vr33L-CSMG4Fa-b3n-33" style="edgeStyle=orthogonalEdgeStyle;rounded=0;orthogonalLoop=1;jettySize=auto;html=1;entryX=1;entryY=0.507;entryDx=0;entryDy=0;entryPerimeter=0;endArrow=none;startFill=0;" edge="1" parent="1" source="6G0Vr33L-CSMG4Fa-b3n-15" target="vt7eSgyee0l8mGqO6cdc-42">
          <mxGeometry relative="1" as="geometry">
            <Array as="points">
              <mxPoint x="40" y="945" />
              <mxPoint x="40" y="780" />
              <mxPoint x="320" y="780" />
              <mxPoint x="320" y="575" />
            </Array>
          </mxGeometry>
        </mxCell>
        <mxCell id="6G0Vr33L-CSMG4Fa-b3n-38" value="" style="group" vertex="1" connectable="0" parent="1">
          <mxGeometry x="440" y="840" width="120" height="120" as="geometry" />
        </mxCell>
        <mxCell id="6G0Vr33L-CSMG4Fa-b3n-35" value="LiDAR" style="rounded=0;whiteSpace=wrap;html=1;" vertex="1" parent="6G0Vr33L-CSMG4Fa-b3n-38">
          <mxGeometry width="115.19999999999999" height="120" as="geometry" />
        </mxCell>
        <mxCell id="6G0Vr33L-CSMG4Fa-b3n-36" value="&lt;font style=&quot;font-size: 10px;&quot;&gt;+5V&lt;/font&gt;" style="text;html=1;align=center;verticalAlign=middle;resizable=0;points=[];autosize=1;strokeColor=none;fillColor=none;" vertex="1" parent="6G0Vr33L-CSMG4Fa-b3n-38">
          <mxGeometry width="40" height="30" as="geometry" />
        </mxCell>
        <mxCell id="6G0Vr33L-CSMG4Fa-b3n-37" value="&lt;font style=&quot;font-size: 10px;&quot;&gt;GND&lt;/font&gt;" style="text;html=1;align=center;verticalAlign=middle;resizable=0;points=[];autosize=1;strokeColor=none;fillColor=none;" vertex="1" parent="6G0Vr33L-CSMG4Fa-b3n-38">
          <mxGeometry y="90" width="50" height="30" as="geometry" />
        </mxCell>
        <mxCell id="6G0Vr33L-CSMG4Fa-b3n-39" value="&lt;div&gt;Redboard MCU&lt;/div&gt;TM4C123GH6PM" style="rounded=0;whiteSpace=wrap;html=1;" vertex="1" parent="1">
          <mxGeometry x="600" y="840" width="120" height="120" as="geometry" />
        </mxCell>
        <mxCell id="6G0Vr33L-CSMG4Fa-b3n-40" value="&lt;font style=&quot;font-size: 10px;&quot;&gt;+5V&lt;/font&gt;" style="text;html=1;align=center;verticalAlign=middle;resizable=0;points=[];autosize=1;strokeColor=none;fillColor=none;" vertex="1" parent="1">
          <mxGeometry x="280" y="840" width="40" height="30" as="geometry" />
        </mxCell>
        <mxCell id="6G0Vr33L-CSMG4Fa-b3n-43" value="&lt;font style=&quot;font-size: 10px;&quot;&gt;GND&lt;/font&gt;" style="text;html=1;align=center;verticalAlign=middle;resizable=0;points=[];autosize=1;strokeColor=none;fillColor=none;" vertex="1" parent="1">
          <mxGeometry x="350" y="930" width="50" height="30" as="geometry" />
        </mxCell>
        <mxCell id="6G0Vr33L-CSMG4Fa-b3n-44" value="" style="group" vertex="1" connectable="0" parent="1">
          <mxGeometry x="750" y="840" width="72.5" height="120" as="geometry" />
        </mxCell>
        <mxCell id="6G0Vr33L-CSMG4Fa-b3n-45" value="Sonar" style="rounded=0;whiteSpace=wrap;html=1;" vertex="1" parent="6G0Vr33L-CSMG4Fa-b3n-44">
          <mxGeometry width="69.6" height="120" as="geometry" />
        </mxCell>
        <mxCell id="6G0Vr33L-CSMG4Fa-b3n-46" value="&lt;font style=&quot;font-size: 10px;&quot;&gt;+5V&lt;/font&gt;" style="text;html=1;align=center;verticalAlign=middle;resizable=0;points=[];autosize=1;strokeColor=none;fillColor=none;" vertex="1" parent="6G0Vr33L-CSMG4Fa-b3n-44">
          <mxGeometry x="-10" y="90" width="40" height="30" as="geometry" />
        </mxCell>
        <mxCell id="6G0Vr33L-CSMG4Fa-b3n-47" value="&lt;font style=&quot;font-size: 10px;&quot;&gt;GND&lt;/font&gt;" style="text;html=1;align=center;verticalAlign=middle;resizable=0;points=[];autosize=1;strokeColor=none;fillColor=none;" vertex="1" parent="6G0Vr33L-CSMG4Fa-b3n-44">
          <mxGeometry x="30" y="90" width="50" height="30" as="geometry" />
        </mxCell>
        <mxCell id="6G0Vr33L-CSMG4Fa-b3n-48" value="&lt;div&gt;PCBoard&lt;/div&gt;&lt;div&gt;Power Distribution&lt;/div&gt;" style="rounded=0;whiteSpace=wrap;html=1;" vertex="1" parent="1">
          <mxGeometry x="280" y="1000" width="640" height="80" as="geometry" />
        </mxCell>
        <mxCell id="6G0Vr33L-CSMG4Fa-b3n-49" value="" style="group" vertex="1" connectable="0" parent="1">
          <mxGeometry x="850" y="840" width="72.5" height="120" as="geometry" />
        </mxCell>
        <mxCell id="6G0Vr33L-CSMG4Fa-b3n-50" value="Sonar" style="rounded=0;whiteSpace=wrap;html=1;" vertex="1" parent="6G0Vr33L-CSMG4Fa-b3n-49">
          <mxGeometry width="69.6" height="120" as="geometry" />
        </mxCell>
        <mxCell id="6G0Vr33L-CSMG4Fa-b3n-51" value="&lt;font style=&quot;font-size: 10px;&quot;&gt;+5V&lt;/font&gt;" style="text;html=1;align=center;verticalAlign=middle;resizable=0;points=[];autosize=1;strokeColor=none;fillColor=none;" vertex="1" parent="6G0Vr33L-CSMG4Fa-b3n-49">
          <mxGeometry x="-10" y="90" width="40" height="30" as="geometry" />
        </mxCell>
        <mxCell id="6G0Vr33L-CSMG4Fa-b3n-52" value="&lt;font style=&quot;font-size: 10px;&quot;&gt;GND&lt;/font&gt;" style="text;html=1;align=center;verticalAlign=middle;resizable=0;points=[];autosize=1;strokeColor=none;fillColor=none;" vertex="1" parent="6G0Vr33L-CSMG4Fa-b3n-49">
          <mxGeometry x="30" y="90" width="50" height="30" as="geometry" />
        </mxCell>
        <mxCell id="6G0Vr33L-CSMG4Fa-b3n-55" value="&lt;font style=&quot;font-size: 10px;&quot;&gt;+5V&lt;/font&gt;" style="text;html=1;align=center;verticalAlign=middle;resizable=0;points=[];autosize=1;strokeColor=none;fillColor=none;" vertex="1" parent="1">
          <mxGeometry x="360" y="840" width="40" height="30" as="geometry" />
        </mxCell>
        <mxCell id="6G0Vr33L-CSMG4Fa-b3n-64" value="" style="group" vertex="1" connectable="0" parent="1">
          <mxGeometry x="510.00482758620683" y="340" width="80.00517241379316" height="120" as="geometry" />
        </mxCell>
        <mxCell id="6G0Vr33L-CSMG4Fa-b3n-61" value="Motor&lt;div&gt;(Front Left)&lt;/div&gt;" style="rounded=0;whiteSpace=wrap;html=1;" vertex="1" parent="6G0Vr33L-CSMG4Fa-b3n-64">
          <mxGeometry x="0.005172413793161468" width="80" height="120" as="geometry" />
        </mxCell>
        <mxCell id="6G0Vr33L-CSMG4Fa-b3n-62" value="MA" style="text;html=1;align=center;verticalAlign=middle;resizable=0;points=[];autosize=1;strokeColor=none;fillColor=none;" vertex="1" parent="6G0Vr33L-CSMG4Fa-b3n-64">
          <mxGeometry y="90" width="40" height="30" as="geometry" />
        </mxCell>
        <mxCell id="6G0Vr33L-CSMG4Fa-b3n-63" value="MB" style="text;html=1;align=center;verticalAlign=middle;resizable=0;points=[];autosize=1;strokeColor=none;fillColor=none;" vertex="1" parent="6G0Vr33L-CSMG4Fa-b3n-64">
          <mxGeometry x="40.00068965517244" y="90" width="40" height="30" as="geometry" />
        </mxCell>
        <mxCell id="6G0Vr33L-CSMG4Fa-b3n-65" value="" style="group" vertex="1" connectable="0" parent="1">
          <mxGeometry x="590.0148275862068" y="340" width="80.00517241379316" height="120" as="geometry" />
        </mxCell>
        <mxCell id="6G0Vr33L-CSMG4Fa-b3n-66" value="Motor&lt;div&gt;(Front Right)&lt;/div&gt;" style="rounded=0;whiteSpace=wrap;html=1;" vertex="1" parent="6G0Vr33L-CSMG4Fa-b3n-65">
          <mxGeometry x="0.005172413793161468" width="80" height="120" as="geometry" />
        </mxCell>
        <mxCell id="6G0Vr33L-CSMG4Fa-b3n-67" value="MA" style="text;html=1;align=center;verticalAlign=middle;resizable=0;points=[];autosize=1;strokeColor=none;fillColor=none;" vertex="1" parent="6G0Vr33L-CSMG4Fa-b3n-65">
          <mxGeometry y="90" width="40" height="30" as="geometry" />
        </mxCell>
        <mxCell id="6G0Vr33L-CSMG4Fa-b3n-68" value="MB" style="text;html=1;align=center;verticalAlign=middle;resizable=0;points=[];autosize=1;strokeColor=none;fillColor=none;" vertex="1" parent="6G0Vr33L-CSMG4Fa-b3n-65">
          <mxGeometry x="40.00068965517244" y="90" width="40" height="30" as="geometry" />
        </mxCell>
        <mxCell id="6G0Vr33L-CSMG4Fa-b3n-69" value="" style="group" connectable="0" vertex="1" parent="1">
          <mxGeometry x="800" y="160" width="120" height="120" as="geometry" />
        </mxCell>
        <mxCell id="6G0Vr33L-CSMG4Fa-b3n-70" value="&lt;div&gt;&lt;font style=&quot;font-size: 12px;&quot;&gt;&lt;br&gt;&lt;/font&gt;&lt;/div&gt;&lt;font style=&quot;font-size: 12px;&quot;&gt;12V Relay&lt;/font&gt;&lt;div&gt;&lt;font style=&quot;font-size: 12px;&quot;&gt;(CB1A-M-12V)&lt;/font&gt;&lt;/div&gt;" style="whiteSpace=wrap;html=1;aspect=fixed;" vertex="1" parent="6G0Vr33L-CSMG4Fa-b3n-69">
          <mxGeometry width="120" height="120" as="geometry" />
        </mxCell>
        <mxCell id="6G0Vr33L-CSMG4Fa-b3n-71" value="" style="pointerEvents=1;fillColor=strokeColor;verticalLabelPosition=bottom;shadow=0;dashed=0;align=center;html=1;verticalAlign=top;shape=mxgraph.electrical.diodes.diode;" vertex="1" parent="6G0Vr33L-CSMG4Fa-b3n-69">
          <mxGeometry x="30" y="25" width="60" height="20" as="geometry" />
        </mxCell>
        <mxCell id="6G0Vr33L-CSMG4Fa-b3n-72" value="&lt;font style=&quot;font-size: 10px;&quot;&gt;87&lt;/font&gt;" style="text;html=1;align=center;verticalAlign=middle;resizable=0;points=[];autosize=1;strokeColor=none;fillColor=none;" vertex="1" parent="6G0Vr33L-CSMG4Fa-b3n-69">
          <mxGeometry x="45" width="30" height="30" as="geometry" />
        </mxCell>
        <mxCell id="6G0Vr33L-CSMG4Fa-b3n-73" value="&lt;font style=&quot;font-size: 10px;&quot;&gt;85&lt;/font&gt;" style="text;html=1;align=center;verticalAlign=middle;resizable=0;points=[];autosize=1;strokeColor=none;fillColor=none;" vertex="1" parent="6G0Vr33L-CSMG4Fa-b3n-69">
          <mxGeometry x="90" y="45" width="30" height="30" as="geometry" />
        </mxCell>
        <mxCell id="6G0Vr33L-CSMG4Fa-b3n-74" style="edgeStyle=orthogonalEdgeStyle;rounded=0;orthogonalLoop=1;jettySize=auto;html=1;exitX=1;exitY=0.5;exitDx=0;exitDy=0;exitPerimeter=0;entryX=0.49;entryY=0.109;entryDx=0;entryDy=0;entryPerimeter=0;endArrow=none;endFill=0;" edge="1" parent="6G0Vr33L-CSMG4Fa-b3n-69" source="6G0Vr33L-CSMG4Fa-b3n-71" target="6G0Vr33L-CSMG4Fa-b3n-73">
          <mxGeometry relative="1" as="geometry" />
        </mxCell>
        <mxCell id="6G0Vr33L-CSMG4Fa-b3n-75" value="&lt;font style=&quot;font-size: 10px;&quot;&gt;86&lt;/font&gt;" style="text;html=1;align=center;verticalAlign=middle;resizable=0;points=[];autosize=1;strokeColor=none;fillColor=none;" vertex="1" parent="6G0Vr33L-CSMG4Fa-b3n-69">
          <mxGeometry y="45" width="30" height="30" as="geometry" />
        </mxCell>
        <mxCell id="6G0Vr33L-CSMG4Fa-b3n-76" style="edgeStyle=orthogonalEdgeStyle;rounded=0;orthogonalLoop=1;jettySize=auto;html=1;entryX=0.474;entryY=0.091;entryDx=0;entryDy=0;entryPerimeter=0;exitX=0;exitY=0.5;exitDx=0;exitDy=0;exitPerimeter=0;endArrow=none;endFill=0;" edge="1" parent="6G0Vr33L-CSMG4Fa-b3n-69" source="6G0Vr33L-CSMG4Fa-b3n-71" target="6G0Vr33L-CSMG4Fa-b3n-75">
          <mxGeometry relative="1" as="geometry">
            <Array as="points">
              <mxPoint x="14" y="35" />
            </Array>
          </mxGeometry>
        </mxCell>
        <mxCell id="6G0Vr33L-CSMG4Fa-b3n-77" value="&lt;font style=&quot;font-size: 10px;&quot;&gt;30&lt;/font&gt;" style="text;html=1;align=center;verticalAlign=middle;resizable=0;points=[];autosize=1;strokeColor=none;fillColor=none;" vertex="1" parent="6G0Vr33L-CSMG4Fa-b3n-69">
          <mxGeometry x="45" y="90" width="30" height="30" as="geometry" />
        </mxCell>
        <mxCell id="6G0Vr33L-CSMG4Fa-b3n-78" value="" style="group" vertex="1" connectable="0" parent="1">
          <mxGeometry x="760.0048275862068" y="340" width="80.00517241379316" height="120" as="geometry" />
        </mxCell>
        <mxCell id="6G0Vr33L-CSMG4Fa-b3n-79" value="Motor&lt;div&gt;(Back Left)&lt;/div&gt;" style="rounded=0;whiteSpace=wrap;html=1;" vertex="1" parent="6G0Vr33L-CSMG4Fa-b3n-78">
          <mxGeometry x="0.005172413793161468" width="80" height="120" as="geometry" />
        </mxCell>
        <mxCell id="6G0Vr33L-CSMG4Fa-b3n-80" value="MA" style="text;html=1;align=center;verticalAlign=middle;resizable=0;points=[];autosize=1;strokeColor=none;fillColor=none;" vertex="1" parent="6G0Vr33L-CSMG4Fa-b3n-78">
          <mxGeometry y="90" width="40" height="30" as="geometry" />
        </mxCell>
        <mxCell id="6G0Vr33L-CSMG4Fa-b3n-81" value="MB" style="text;html=1;align=center;verticalAlign=middle;resizable=0;points=[];autosize=1;strokeColor=none;fillColor=none;" vertex="1" parent="6G0Vr33L-CSMG4Fa-b3n-78">
          <mxGeometry x="40.00068965517244" y="90" width="40" height="30" as="geometry" />
        </mxCell>
        <mxCell id="6G0Vr33L-CSMG4Fa-b3n-82" value="" style="group" vertex="1" connectable="0" parent="1">
          <mxGeometry x="840.0148275862068" y="340" width="80.00517241379316" height="120" as="geometry" />
        </mxCell>
        <mxCell id="6G0Vr33L-CSMG4Fa-b3n-83" value="Motor&lt;div&gt;(Back Right)&lt;/div&gt;" style="rounded=0;whiteSpace=wrap;html=1;" vertex="1" parent="6G0Vr33L-CSMG4Fa-b3n-82">
          <mxGeometry x="0.005172413793161468" width="80" height="120" as="geometry" />
        </mxCell>
        <mxCell id="6G0Vr33L-CSMG4Fa-b3n-84" value="MA" style="text;html=1;align=center;verticalAlign=middle;resizable=0;points=[];autosize=1;strokeColor=none;fillColor=none;" vertex="1" parent="6G0Vr33L-CSMG4Fa-b3n-82">
          <mxGeometry y="90" width="40" height="30" as="geometry" />
        </mxCell>
        <mxCell id="6G0Vr33L-CSMG4Fa-b3n-85" value="MB" style="text;html=1;align=center;verticalAlign=middle;resizable=0;points=[];autosize=1;strokeColor=none;fillColor=none;" vertex="1" parent="6G0Vr33L-CSMG4Fa-b3n-82">
          <mxGeometry x="40.00068965517244" y="90" width="40" height="30" as="geometry" />
        </mxCell>
        <mxCell id="6G0Vr33L-CSMG4Fa-b3n-88" style="edgeStyle=orthogonalEdgeStyle;rounded=0;orthogonalLoop=1;jettySize=auto;html=1;entryX=0.489;entryY=0.996;entryDx=0;entryDy=0;entryPerimeter=0;fillColor=#d5e8d4;strokeColor=#82b366;endArrow=none;startFill=0;" edge="1" parent="1" source="vt7eSgyee0l8mGqO6cdc-55" target="6G0Vr33L-CSMG4Fa-b3n-62">
          <mxGeometry relative="1" as="geometry">
            <Array as="points">
              <mxPoint x="470" y="520" />
              <mxPoint x="530" y="520" />
            </Array>
          </mxGeometry>
        </mxCell>
        <mxCell id="6G0Vr33L-CSMG4Fa-b3n-89" style="edgeStyle=orthogonalEdgeStyle;rounded=0;orthogonalLoop=1;jettySize=auto;html=1;entryX=0.503;entryY=0.996;entryDx=0;entryDy=0;entryPerimeter=0;fillColor=#fff2cc;strokeColor=#d6b656;endArrow=none;startFill=0;" edge="1" parent="1" source="vt7eSgyee0l8mGqO6cdc-54" target="6G0Vr33L-CSMG4Fa-b3n-63">
          <mxGeometry relative="1" as="geometry">
            <Array as="points">
              <mxPoint x="500" y="530" />
              <mxPoint x="570" y="530" />
            </Array>
          </mxGeometry>
        </mxCell>
        <mxCell id="6G0Vr33L-CSMG4Fa-b3n-90" style="edgeStyle=orthogonalEdgeStyle;rounded=0;orthogonalLoop=1;jettySize=auto;html=1;entryX=0.5;entryY=1;entryDx=0;entryDy=0;entryPerimeter=0;fillColor=#d5e8d4;strokeColor=#82b366;endArrow=none;startFill=0;" edge="1" parent="1" source="vt7eSgyee0l8mGqO6cdc-57" target="6G0Vr33L-CSMG4Fa-b3n-67">
          <mxGeometry relative="1" as="geometry">
            <Array as="points">
              <mxPoint x="550" y="540" />
              <mxPoint x="610" y="540" />
            </Array>
          </mxGeometry>
        </mxCell>
        <mxCell id="6G0Vr33L-CSMG4Fa-b3n-91" style="edgeStyle=orthogonalEdgeStyle;rounded=0;orthogonalLoop=1;jettySize=auto;html=1;entryX=0.5;entryY=1;entryDx=0;entryDy=0;entryPerimeter=0;fillColor=#fff2cc;strokeColor=#d6b656;endArrow=none;startFill=0;" edge="1" parent="1" source="vt7eSgyee0l8mGqO6cdc-56" target="6G0Vr33L-CSMG4Fa-b3n-68">
          <mxGeometry relative="1" as="geometry">
            <Array as="points">
              <mxPoint x="580" y="550" />
              <mxPoint x="650" y="550" />
            </Array>
          </mxGeometry>
        </mxCell>
        <mxCell id="6G0Vr33L-CSMG4Fa-b3n-92" style="edgeStyle=orthogonalEdgeStyle;rounded=0;orthogonalLoop=1;jettySize=auto;html=1;entryX=0.5;entryY=1;entryDx=0;entryDy=0;entryPerimeter=0;endArrow=none;startFill=0;fillColor=#d5e8d4;strokeColor=#82b366;" edge="1" parent="1" source="vt7eSgyee0l8mGqO6cdc-71" target="6G0Vr33L-CSMG4Fa-b3n-80">
          <mxGeometry relative="1" as="geometry" />
        </mxCell>
        <mxCell id="6G0Vr33L-CSMG4Fa-b3n-93" style="edgeStyle=orthogonalEdgeStyle;rounded=0;orthogonalLoop=1;jettySize=auto;html=1;entryX=0.5;entryY=1;entryDx=0;entryDy=0;entryPerimeter=0;endArrow=none;startFill=0;fillColor=#fff2cc;strokeColor=#d6b656;" edge="1" parent="1" source="vt7eSgyee0l8mGqO6cdc-70" target="6G0Vr33L-CSMG4Fa-b3n-81">
          <mxGeometry relative="1" as="geometry" />
        </mxCell>
        <mxCell id="6G0Vr33L-CSMG4Fa-b3n-94" style="edgeStyle=orthogonalEdgeStyle;rounded=0;orthogonalLoop=1;jettySize=auto;html=1;entryX=0.5;entryY=1;entryDx=0;entryDy=0;entryPerimeter=0;endArrow=none;startFill=0;fillColor=#d5e8d4;strokeColor=#82b366;" edge="1" parent="1" source="vt7eSgyee0l8mGqO6cdc-68" target="6G0Vr33L-CSMG4Fa-b3n-84">
          <mxGeometry relative="1" as="geometry" />
        </mxCell>
        <mxCell id="6G0Vr33L-CSMG4Fa-b3n-95" style="edgeStyle=orthogonalEdgeStyle;rounded=0;orthogonalLoop=1;jettySize=auto;html=1;entryX=0.5;entryY=1;entryDx=0;entryDy=0;entryPerimeter=0;endArrow=none;startFill=0;fillColor=#fff2cc;strokeColor=#d6b656;" edge="1" parent="1" source="vt7eSgyee0l8mGqO6cdc-69" target="6G0Vr33L-CSMG4Fa-b3n-85">
          <mxGeometry relative="1" as="geometry" />
        </mxCell>
        <mxCell id="6G0Vr33L-CSMG4Fa-b3n-96" style="edgeStyle=orthogonalEdgeStyle;rounded=0;orthogonalLoop=1;jettySize=auto;html=1;entryX=0;entryY=0.5;entryDx=0;entryDy=0;entryPerimeter=0;endArrow=none;startFill=0;fillColor=#f8cecc;strokeColor=#b85450;" edge="1" parent="1" source="6G0Vr33L-CSMG4Fa-b3n-55" target="6G0Vr33L-CSMG4Fa-b3n-36">
          <mxGeometry relative="1" as="geometry" />
        </mxCell>
        <mxCell id="6G0Vr33L-CSMG4Fa-b3n-97" style="edgeStyle=orthogonalEdgeStyle;rounded=0;orthogonalLoop=1;jettySize=auto;html=1;entryX=0;entryY=0.5;entryDx=0;entryDy=0;entryPerimeter=0;endArrow=none;startFill=0;" edge="1" parent="1" source="6G0Vr33L-CSMG4Fa-b3n-43" target="6G0Vr33L-CSMG4Fa-b3n-37">
          <mxGeometry relative="1" as="geometry" />
        </mxCell>
        <mxCell id="6G0Vr33L-CSMG4Fa-b3n-98" value="&lt;font style=&quot;font-size: 10px;&quot;&gt;+5V&lt;/font&gt;" style="text;html=1;align=center;verticalAlign=middle;resizable=0;points=[];autosize=1;strokeColor=none;fillColor=none;" vertex="1" parent="1">
          <mxGeometry x="320" y="1000" width="40" height="30" as="geometry" />
        </mxCell>
        <mxCell id="6G0Vr33L-CSMG4Fa-b3n-99" value="&lt;font style=&quot;font-size: 10px;&quot;&gt;GND&lt;/font&gt;" style="text;html=1;align=center;verticalAlign=middle;resizable=0;points=[];autosize=1;strokeColor=none;fillColor=none;" vertex="1" parent="1">
          <mxGeometry x="350" y="1000" width="50" height="30" as="geometry" />
        </mxCell>
        <mxCell id="6G0Vr33L-CSMG4Fa-b3n-100" value="&lt;font style=&quot;font-size: 10px;&quot;&gt;GND&lt;/font&gt;" style="text;html=1;align=center;verticalAlign=middle;resizable=0;points=[];autosize=1;strokeColor=none;fillColor=none;" vertex="1" parent="1">
          <mxGeometry x="670.02" y="930" width="50" height="30" as="geometry" />
        </mxCell>
        <mxCell id="6G0Vr33L-CSMG4Fa-b3n-101" value="&lt;font style=&quot;font-size: 10px;&quot;&gt;+5V&lt;/font&gt;" style="text;html=1;align=center;verticalAlign=middle;resizable=0;points=[];autosize=1;strokeColor=none;fillColor=none;" vertex="1" parent="1">
          <mxGeometry x="600" y="930" width="40" height="30" as="geometry" />
        </mxCell>
        <mxCell id="6G0Vr33L-CSMG4Fa-b3n-102" style="edgeStyle=orthogonalEdgeStyle;rounded=0;orthogonalLoop=1;jettySize=auto;html=1;entryX=0.5;entryY=1;entryDx=0;entryDy=0;entryPerimeter=0;endArrow=none;startFill=0;" edge="1" parent="1" source="6G0Vr33L-CSMG4Fa-b3n-99" target="6G0Vr33L-CSMG4Fa-b3n-43">
          <mxGeometry relative="1" as="geometry" />
        </mxCell>
        <mxCell id="6G0Vr33L-CSMG4Fa-b3n-105" value="&lt;font style=&quot;font-size: 10px;&quot;&gt;+5V&lt;/font&gt;" style="text;html=1;align=center;verticalAlign=middle;resizable=0;points=[];autosize=1;strokeColor=none;fillColor=none;" vertex="1" parent="1">
          <mxGeometry x="600" y="1000" width="40" height="30" as="geometry" />
        </mxCell>
        <mxCell id="6G0Vr33L-CSMG4Fa-b3n-106" value="&lt;font style=&quot;font-size: 10px;&quot;&gt;GND&lt;/font&gt;" style="text;html=1;align=center;verticalAlign=middle;resizable=0;points=[];autosize=1;strokeColor=none;fillColor=none;" vertex="1" parent="1">
          <mxGeometry x="670.02" y="1000" width="50" height="30" as="geometry" />
        </mxCell>
        <mxCell id="6G0Vr33L-CSMG4Fa-b3n-107" style="edgeStyle=orthogonalEdgeStyle;rounded=0;orthogonalLoop=1;jettySize=auto;html=1;entryX=0.5;entryY=1;entryDx=0;entryDy=0;entryPerimeter=0;endArrow=none;startFill=0;" edge="1" parent="1" source="6G0Vr33L-CSMG4Fa-b3n-106" target="6G0Vr33L-CSMG4Fa-b3n-100">
          <mxGeometry relative="1" as="geometry" />
        </mxCell>
        <mxCell id="6G0Vr33L-CSMG4Fa-b3n-108" style="edgeStyle=orthogonalEdgeStyle;rounded=0;orthogonalLoop=1;jettySize=auto;html=1;entryX=0.5;entryY=1;entryDx=0;entryDy=0;entryPerimeter=0;endArrow=none;startFill=0;fillColor=#f8cecc;strokeColor=#b85450;" edge="1" parent="1" source="6G0Vr33L-CSMG4Fa-b3n-105" target="6G0Vr33L-CSMG4Fa-b3n-101">
          <mxGeometry relative="1" as="geometry" />
        </mxCell>
        <mxCell id="6G0Vr33L-CSMG4Fa-b3n-109" value="&lt;font style=&quot;font-size: 10px;&quot;&gt;GND&lt;/font&gt;" style="text;html=1;align=center;verticalAlign=middle;resizable=0;points=[];autosize=1;strokeColor=none;fillColor=none;" vertex="1" parent="1">
          <mxGeometry x="780" y="1000" width="50" height="30" as="geometry" />
        </mxCell>
        <mxCell id="6G0Vr33L-CSMG4Fa-b3n-114" value="&lt;font style=&quot;font-size: 10px;&quot;&gt;+5V&lt;/font&gt;" style="text;html=1;align=center;verticalAlign=middle;resizable=0;points=[];autosize=1;strokeColor=none;fillColor=none;" vertex="1" parent="1">
          <mxGeometry x="740" y="1000" width="40" height="30" as="geometry" />
        </mxCell>
        <mxCell id="6G0Vr33L-CSMG4Fa-b3n-115" value="&lt;font style=&quot;font-size: 10px;&quot;&gt;+5V&lt;/font&gt;" style="text;html=1;align=center;verticalAlign=middle;resizable=0;points=[];autosize=1;strokeColor=none;fillColor=none;" vertex="1" parent="1">
          <mxGeometry x="840.01" y="1000" width="40" height="30" as="geometry" />
        </mxCell>
        <mxCell id="6G0Vr33L-CSMG4Fa-b3n-116" value="&lt;font style=&quot;font-size: 10px;&quot;&gt;GND&lt;/font&gt;" style="text;html=1;align=center;verticalAlign=middle;resizable=0;points=[];autosize=1;strokeColor=none;fillColor=none;" vertex="1" parent="1">
          <mxGeometry x="880.01" y="1000" width="50" height="30" as="geometry" />
        </mxCell>
        <mxCell id="6G0Vr33L-CSMG4Fa-b3n-117" style="edgeStyle=orthogonalEdgeStyle;rounded=0;orthogonalLoop=1;jettySize=auto;html=1;entryX=0.5;entryY=1;entryDx=0;entryDy=0;entryPerimeter=0;endArrow=none;startFill=0;fillColor=#f8cecc;strokeColor=#b85450;" edge="1" parent="1" source="6G0Vr33L-CSMG4Fa-b3n-114" target="6G0Vr33L-CSMG4Fa-b3n-46">
          <mxGeometry relative="1" as="geometry" />
        </mxCell>
        <mxCell id="6G0Vr33L-CSMG4Fa-b3n-118" style="edgeStyle=orthogonalEdgeStyle;rounded=0;orthogonalLoop=1;jettySize=auto;html=1;entryX=0.5;entryY=1;entryDx=0;entryDy=0;entryPerimeter=0;endArrow=none;startFill=0;" edge="1" parent="1" source="6G0Vr33L-CSMG4Fa-b3n-109" target="6G0Vr33L-CSMG4Fa-b3n-47">
          <mxGeometry relative="1" as="geometry" />
        </mxCell>
        <mxCell id="6G0Vr33L-CSMG4Fa-b3n-119" style="edgeStyle=orthogonalEdgeStyle;rounded=0;orthogonalLoop=1;jettySize=auto;html=1;entryX=0.5;entryY=1;entryDx=0;entryDy=0;entryPerimeter=0;endArrow=none;startFill=0;fillColor=#f8cecc;strokeColor=#b85450;" edge="1" parent="1" source="6G0Vr33L-CSMG4Fa-b3n-115" target="6G0Vr33L-CSMG4Fa-b3n-51">
          <mxGeometry relative="1" as="geometry" />
        </mxCell>
        <mxCell id="6G0Vr33L-CSMG4Fa-b3n-120" style="edgeStyle=orthogonalEdgeStyle;rounded=0;orthogonalLoop=1;jettySize=auto;html=1;entryX=0.5;entryY=1;entryDx=0;entryDy=0;entryPerimeter=0;endArrow=none;startFill=0;" edge="1" parent="1" source="6G0Vr33L-CSMG4Fa-b3n-116" target="6G0Vr33L-CSMG4Fa-b3n-52">
          <mxGeometry relative="1" as="geometry" />
        </mxCell>
        <mxCell id="6G0Vr33L-CSMG4Fa-b3n-121" value="&lt;font style=&quot;font-size: 10px;&quot;&gt;GND&lt;/font&gt;" style="text;html=1;align=center;verticalAlign=middle;resizable=0;points=[];autosize=1;strokeColor=none;fillColor=none;" vertex="1" parent="1">
          <mxGeometry x="280" y="930" width="50" height="30" as="geometry" />
        </mxCell>
        <mxCell id="6G0Vr33L-CSMG4Fa-b3n-123" style="edgeStyle=orthogonalEdgeStyle;rounded=0;orthogonalLoop=1;jettySize=auto;html=1;entryX=0;entryY=0.5;entryDx=0;entryDy=0;entryPerimeter=0;endArrow=none;startFill=0;fillColor=#f8cecc;strokeColor=#b85450;" edge="1" parent="1" source="6G0Vr33L-CSMG4Fa-b3n-17" target="6G0Vr33L-CSMG4Fa-b3n-40">
          <mxGeometry relative="1" as="geometry" />
        </mxCell>
        <mxCell id="6G0Vr33L-CSMG4Fa-b3n-124" style="edgeStyle=orthogonalEdgeStyle;rounded=0;orthogonalLoop=1;jettySize=auto;html=1;entryX=0;entryY=0.5;entryDx=0;entryDy=0;entryPerimeter=0;endArrow=none;startFill=0;" edge="1" parent="1" source="6G0Vr33L-CSMG4Fa-b3n-16" target="6G0Vr33L-CSMG4Fa-b3n-121">
          <mxGeometry relative="1" as="geometry" />
        </mxCell>
        <mxCell id="6G0Vr33L-CSMG4Fa-b3n-125" value="&lt;font style=&quot;font-size: 10px;&quot;&gt;+5V&lt;/font&gt;" style="text;html=1;align=center;verticalAlign=middle;resizable=0;points=[];autosize=1;strokeColor=none;fillColor=none;" vertex="1" parent="1">
          <mxGeometry x="320" y="930" width="40" height="30" as="geometry" />
        </mxCell>
        <mxCell id="6G0Vr33L-CSMG4Fa-b3n-127" style="edgeStyle=orthogonalEdgeStyle;rounded=0;orthogonalLoop=1;jettySize=auto;html=1;entryX=0.5;entryY=0;entryDx=0;entryDy=0;entryPerimeter=0;endArrow=none;startFill=0;fillColor=#f8cecc;strokeColor=#b85450;" edge="1" parent="1" source="6G0Vr33L-CSMG4Fa-b3n-125" target="6G0Vr33L-CSMG4Fa-b3n-98">
          <mxGeometry relative="1" as="geometry" />
        </mxCell>
      </root>
    </mxGraphModel>
  </diagram>
</mxfile>
